# xmcd
#
# Track frame offsets:
#	150
#	17043
#	39763
#	57522
#	75199
#	98772
#	121072
#	140728
#	161451
#	177339
#	198238
#	212803
#	223516
#	243372
#	263798
#	286568
#
# Disc length: 4058 seconds
#
# Revision: 1
# Processed by: cddbd v1.5.1PL2 Copyright (c) Steve Scherf et al.
# Submitted via: audiograbber 1.83.01
#
DISCID=d10fd810
DTITLE=Various Artist - Female vocal jazz 2
DYEAR=2004
DGENRE=Jazz
TTITLE0=Malia feat. Eric Truffaz - Yellow Daffodils
TTITLE1=Joel Harrison feat. Norah Jonas - I Walk The Line
TTITLE2=Viktoria Tolstoy - Upside Out
TTITLE3=Jocelyn B. Smith - Still A Rose
TTITLE4=Cultured Pearls - Monday
TTITLE5=Dee Dee Bridgewater - Sorry Seems To Be The Hardest Word
TTITLE6=Naomi - Three Stars No Match
TTITLE7=Rigmor Gustafsson and Nils Landgren - The Moon Is A Harsh Mistress
TTITLE8=Carmen Cuesta-Loeb - One Kiss
TTITLE9=D'Sound - Dancing Into The Moonlight
TTITLE10=Julia Hülsmann Trio and Anna Lauvergnac - Sandman's Coming
TTITLE11=Bill Frisell and Petra Haden - Moon River
TTITLE12=Tess Wiley - Nature of The World
TTITLE13=Esther Kaiser - Fragile
TTITLE14=Hattler - Mallberry Moon
TTITLE15=Sarah Partridge - Almost Like Being In Love
EXTD=YEAR: 2004
EXTT0=
EXTT1=
EXTT2=
EXTT3=
EXTT4=
EXTT5=
EXTT6=
EXTT7=
EXTT8=
EXTT9=
EXTT10=
EXTT11=
EXTT12=
EXTT13=
EXTT14=
EXTT15=
PLAYORDER=
